<?xml version="1.0" encoding="UTF-8"?>
<!DOCTYPE svg PUBLIC "-//W3C//DTD SVG 1.1//EN" "http://www.w3.org/Graphics/SVG/1.1/DTD/svg11.dtd">
<!-- Creator: CorelDRAW 2020 (64-Bit) -->
<svg xmlns="http://www.w3.org/2000/svg" xml:space="preserve" width="210mm" height="297mm" version="1.1" style="shape-rendering:geometricPrecision; text-rendering:geometricPrecision; image-rendering:optimizeQuality; fill-rule:evenodd; clip-rule:evenodd"
viewBox="0 0 21000 29700"
 xmlns:xlink="http://www.w3.org/1999/xlink"
 xmlns:xodm="http://www.corel.com/coreldraw/odm/2003">
 <defs>
  <style type="text/css">
   <![CDATA[
    .str0 {stroke:#00A0E3;stroke-width:20;stroke-miterlimit:22.9256}
    .fil0 {fill:#FEFEFE;fill-rule:nonzero}
   ]]>
  </style>
 </defs>
 <g id="Слой_x0020_1">
  <metadata id="CorelCorpID_0Corel-Layer"/>
  <g id="_2113927791472">
   <path class="fil0 str0" d="M3894.22 12583.48l2910.39 0 0 8739.96 -2910.39 -0.01 0 -8739.95zm12461.85 798.33c-611.36,-667.36 -1419.95,-1001.1 -2425.29,-1001.1 -370.41,0 -707.12,45.56 -1009.97,136.75 -302.76,91.13 -558.47,218.98 -767.26,383.63 -208.67,164.65 -374.86,317.49 -498.24,458.54 -117.32,133.97 -232.05,290.03 -344,466.57l0 -1242.79 -2901.71 0 8.9 423.39c5.96,282.31 8.9,1152.44 8.9,2610.51 0,1458.19 -5.87,3360.19 -17.67,5706.18l2901.58 0 0 -4877.23c0,-299.79 32.16,-537.87 96.97,-714.41 123.56,-300.01 310.05,-551.18 560.08,-753.95 250,-203.01 560.05,-304.43 930.58,-304.43 505.49,0 877.51,174.9 1115.68,524.74 238.07,349.81 357.13,833.43 357.13,1450.81l-0.01 4674.19 2901.59 0 0 -5009.1c-0.22,-1287.77 -305.72,-2265.15 -917.27,-2932.3l0.01 0zm-10989.02 -5005.24c-487.95,0 -883.32,142.68 -1186.2,427.77 -302.85,285.15 -454.18,645.15 -454.18,1080.34 0,429.1 146.97,787.87 440.96,1075.89 293.89,288.06 682,432.16 1164.11,432.16l17.64 0c493.94,0 892.34,-143.98 1195.1,-432.16 302.76,-288.02 451.19,-646.67 445.35,-1075.89 -5.87,-435.16 -155.91,-795.19 -449.8,-1080.34 -293.86,-285.21 -685,-427.77 -1172.98,-427.77z" data-original=""/>
  </g>
 </g>
</svg>
